User Type,Username,Date,Text
,thisisme4,2012-04-12T04:43Z,no comments? fishy.....
[V],sidbizkit,2012-04-20T20:19Z,"decent rip... thanx for sharing

the english subtitles are available here
http://www.tvsubtitles.net/tvshow-143-1.html


Media Info:

Format                                   : AVI
Format/Info                              : Audio Video Interleave
File size                                : 701 MiB
Duration                                 : 1h 13mn
Overall bit rate mode                    : Variable
Overall bit rate                         : 1 338 Kbps
Writing application                      : VirtualDubMod 1.5.10.2 (build 2542/release)
Writing library                          : VirtualDubMod build 2542/release

Video
ID                                       : 0
Format                                   : MPEG-4 Visual
Format profile                           : Advanced Simple@L5
Format settings, BVOP                    : 1
Format settings, QPel                    : No
Format settings, GMC                     : No warppoints
Format settings, Matrix                  : Default (H.263)
Muxing mode                              : Packed bitstream
Codec ID                                 : XVID
Codec ID/Hint                            : XviD
Duration                                 : 1h 13mn
Bit rate                                 : 1 198 Kbps
Width                                    : 640 pixels
Height                                   : 352 pixels
Display aspect ratio                     : 16:9
Frame rate                               : 23.976 fps
Color space                              : YUV
Chroma subsampling                       : 4:2:0
Bit depth                                : 8 bits
Scan type                                : Progressive
Compression mode                         : Lossy
Bits/(Pixel*Frame)                       : 0.222
Stream size                              : 627 MiB (90%)
Writing library                          : XviD 1.1.2 (UTC 2006-11-01)

Audio
ID                                       : 1
Format                                   : MPEG Audio
Format version                           : Version 1
Format profile                           : Layer 3
Mode                                     : Joint stereo
Codec ID                                 : 55
Codec ID/Hint                            : MP3
Duration                                 : 1h 13mn
Bit rate mode                            : Variable
Bit rate                                 : 128 Kbps
Channel(s)                               : 2 channels
Sampling rate                            : 48.0 KHz
Compression mode                         : Lossy
Stream size                              : 66.5 MiB (9%)
Alignment                                : Aligned on interleaves
Interleave, duration                     : 24 ms (0.58 video frame)
Interleave, preload duration             : 151 ms"
,thefinex,2012-05-01T13:32Z,How is the quality on this one? 
